<?xml version="1.0" encoding="UTF-8"?>
<svg version="1.1" xmlns="http://www.w3.org/2000/svg" width="180" height="180">
<path d="M0 0 C0.66 0 1.32 0 2 0 C4.65764945 10.06780145 6.97672503 20.20036515 9.1875 30.375 C9.44934082 31.56254883 9.71118164 32.75009766 9.98095703 33.97363281 C11.41392247 40.64088958 12.52248225 47.19415636 13 54 C19.49154292 50.63081517 25.56489357 47.01268046 31.50390625 42.74609375 C42.57718121 35 42.57718121 35 46 35 C46 34.34 46 33.68 46 33 C47.03125 32.4225 48.0625 31.845 49.125 31.25 C51.60785734 29.84271244 53.89337682 28.38150836 56.25 26.75 C59 25 59 25 62 25 C60.37672344 29.73226388 57.80257735 33.60996632 55.0625 37.75 C54.07142758 39.26289834 53.0805479 40.77592297 52.08984375 42.2890625 C51.32583252 43.45163574 51.32583252 43.45163574 50.54638672 44.63769531 C49.021169 46.96766163 47.50989689 49.30600549 46.00390625 51.6484375 C45.52107178 52.39899414 45.0382373 53.14955078 44.54077148 53.92285156 C43.62406437 55.34873502 42.70815902 56.77513438 41.79321289 58.20214844 C38.9818469 62.56150113 36.04399854 66.79950023 33 71 C34.15757813 70.95359375 35.31515625 70.9071875 36.5078125 70.859375 C38.04684906 70.82183752 39.5859137 70.78543949 41.125 70.75 C41.88554687 70.71648437 42.64609375 70.68296875 43.4296875 70.6484375 C48.77259719 70.55631837 51.78505773 71.40949363 56 75 C57.375 77.75 57.375 77.75 58 80 C59.65902344 80.185625 59.65902344 80.185625 61.3515625 80.375 C66.40944845 81.00807167 71.38127035 81.98805478 76.375 83 C77.72658203 83.26683594 77.72658203 83.26683594 79.10546875 83.5390625 C79.96527344 83.71179688 80.82507813 83.88453125 81.7109375 84.0625 C82.48743652 84.21847656 83.26393555 84.37445313 84.06396484 84.53515625 C86 85 86 85 88 86 C88 86.66 88 87.32 88 88 C79.34795033 90.24356598 70.67358487 92.35731042 61.9375 94.25 C61.15334717 94.42499023 60.36919434 94.59998047 59.5612793 94.78027344 C54.93592081 95.76319302 50.72827373 96.17581894 46 96 C46 97.65 46 99.3 46 101 C42.09450436 103.60366376 38.53252107 103.07369953 34 103 C34.56847656 103.88300781 35.13695313 104.76601562 35.72265625 105.67578125 C36.50264174 106.88799666 37.2825866 108.10023821 38.0625 109.3125 C38.47588623 109.95477539 38.88927246 110.59705078 39.31518555 111.25878906 C41.66457367 114.91208078 43.99652659 118.57539863 46.3125 122.25 C48.52190531 125.74211692 50.79104699 129.1876067 53.1015625 132.61328125 C53.92466919 133.8357959 53.92466919 133.8357959 54.7644043 135.08300781 C55.86850852 136.71926675 56.97666614 138.35279881 58.08911133 139.98339844 C58.59466553 140.73266602 59.10021973 141.48193359 59.62109375 142.25390625 C60.0792749 142.92752197 60.53745605 143.6011377 61.00952148 144.29516602 C62 146 62 146 62 148 C58.67852925 147.35163071 56.2497875 146.11122929 53.375 144.34375 C52.49585938 143.80363281 51.61671875 143.26351562 50.7109375 142.70703125 C45.59800596 139.48750519 40.54770998 136.17591547 35.5 132.85546875 C30.36527994 129.49383171 25.17588001 126.30663351 19.8359375 123.27929688 C19.23007813 122.85712891 18.62421875 122.43496094 18 122 C18 121.34 18 120.68 18 120 C16.68 120 15.36 120 14 120 C13.74307373 121.20946289 13.48614746 122.41892578 13.22143555 123.66503906 C12.25630167 128.20553776 11.28834133 132.74543023 10.31958008 137.28515625 C9.902808 139.24007326 9.48677537 141.19514808 9.0715332 143.15039062 C4.64611131 163.98342367 4.64611131 163.98342367 2 174 C1.34 174 0.68 174 0 174 C-2.29423391 165.13750251 -4.4040055 156.28870484 -6.140625 147.296875 C-7.4334772 140.70397199 -8.91887921 134.14997964 -10.37475586 127.59155273 C-10.58495361 126.63708252 -10.79515137 125.6826123 -11.01171875 124.69921875 C-11.20209717 123.84158936 -11.39247559 122.98395996 -11.58862305 122.1003418 C-12 120 -12 120 -12 118 C-18.06141448 121.52961973 -23.9904626 125.24782831 -29.875 129.0625 C-30.58406494 129.52156738 -31.29312988 129.98063477 -32.02368164 130.45361328 C-36.17593353 133.14831957 -40.31189344 135.86623283 -44.4375 138.6015625 C-45.34258301 139.19831787 -46.24766602 139.79507324 -47.18017578 140.40991211 C-48.9531926 141.57944785 -50.72252027 142.75459892 -52.48779297 143.93579102 C-53.29361816 144.46615967 -54.09944336 144.99652832 -54.9296875 145.54296875 C-56.00065674 146.2548938 -56.00065674 146.2548938 -57.09326172 146.98120117 C-59 148 -59 148 -62 148 C-60.68596521 144.45399225 -59.12454557 141.41617265 -57.0625 138.25 C-56.134375 136.81720703 -56.134375 136.81720703 -55.1875 135.35546875 C-54.66929688 134.56148682 -54.66929688 134.56148682 -54.140625 133.75146484 C-52.87875036 131.81381744 -51.62638441 129.87021924 -50.375 127.92578125 C-42.60394365 115.86546128 -42.60394365 115.86546128 -39.55078125 111.3828125 C-38.83277344 110.32835938 -38.11476562 109.27390625 -37.375 108.1875 C-36.74335937 107.27355469 -36.11171875 106.35960938 -35.4609375 105.41796875 C-34.12425047 103.20564449 -33.43572277 101.52601442 -33 99 C-33.66 99 -34.32 99 -35 99 C-35 99.66 -35 100.32 -35 101 C-35.99 101.33 -36.98 101.66 -38 102 C-38.99 101.01 -39.98 100.02 -41 99 C-41.309375 99.66 -41.61875 100.32 -41.9375 101 C-44.80997695 103.78543219 -46.97632333 103.44003946 -50.84375 103.43359375 C-53.43264246 102.91300124 -54.34185201 102.00359549 -56 100 C-55.505 98.515 -55.505 98.515 -55 97 C-54.34 97 -53.68 97 -53 97 C-53.33 96.34 -53.66 95.68 -54 95 C-55.82779447 94.39326177 -55.82779447 94.39326177 -58.05078125 94.03515625 C-59.30906738 93.79684082 -59.30906738 93.79684082 -60.59277344 93.55371094 C-61.4902832 93.39161133 -62.38779297 93.22951172 -63.3125 93.0625 C-65.13714464 92.71708599 -66.96136687 92.36943296 -68.78515625 92.01953125 C-70.12151123 91.76357178 -70.12151123 91.76357178 -71.48486328 91.50244141 C-76.37134471 90.5262835 -81.18773994 89.29109416 -86 88 C-86 87.34 -86 86.68 -86 86 C-75.39701014 83.22235505 -64.79582332 80.89501154 -54 79 C-54.33 77.02 -54.66 75.04 -55 73 C-51.80254858 70.86836572 -50.71242084 70.68024436 -47 70.625 C-46.13375 70.59664063 -45.2675 70.56828125 -44.375 70.5390625 C-41.24741672 71.14606057 -40.82067745 72.49718194 -39 75 C-36.9511352 75.48057715 -36.9511352 75.48057715 -34.8125 75.25 C-33.554375 75.1675 -32.29625 75.085 -31 75 C-31.4125 74.35675781 -31.825 73.71351562 -32.25 73.05078125 C-34.17482142 70.0389513 -36.08956916 67.02098036 -38 64 C-38.36851074 63.41766602 -38.73702148 62.83533203 -39.11669922 62.23535156 C-40.22886412 60.47262068 -41.3340757 58.70571259 -42.4375 56.9375 C-43.11683594 55.85339844 -43.79617187 54.76929688 -44.49609375 53.65234375 C-46 51 -46 51 -46 49 C-46.66 49 -47.32 49 -48 49 C-49.18920898 47.41113281 -49.18920898 47.41113281 -50.49609375 45.203125 C-50.97240234 44.4090625 -51.44871094 43.615 -51.93945312 42.796875 C-52.43380859 41.95640625 -52.92816406 41.1159375 -53.4375 40.25 C-54.41354633 38.60829263 -55.39135604 36.9676321 -56.37109375 35.328125 C-56.80349365 34.5949707 -57.23589355 33.86181641 -57.68139648 33.10644531 C-58.97493425 30.93663146 -58.97493425 30.93663146 -60.72680664 28.91699219 C-61.35703735 27.96808105 -61.35703735 27.96808105 -62 27 C-61.67 26.01 -61.34 25.02 -61 24 C-60.41476563 24.37769531 -59.82953125 24.75539063 -59.2265625 25.14453125 C-53.15854043 29.03498985 -47.03433494 32.81877725 -40.875 36.5625 C-31.33073604 42.37422258 -22.13017624 48.55741217 -13 55 C-11.5867193 50.17492271 -10.32326936 45.33587547 -9.1875 40.4375 C-9.02008301 39.72078125 -8.85266602 39.0040625 -8.68017578 38.265625 C-5.7145168 25.52707884 -2.82902421 12.76954046 0 0 Z M4 25 C3.67 34.57 3.34 44.14 3 54 C5.64 54.66 8.28 55.32 11 56 C10.33368406 52.06568993 9.65799251 48.13311704 8.97363281 44.2019043 C8.74221718 42.86478221 8.5133527 41.52721595 8.28710938 40.18920898 C7.96117001 38.26430832 7.62524101 36.3411076 7.2890625 34.41796875 C7.09006348 33.26063232 6.89106445 32.1032959 6.68603516 30.91088867 C6.13863583 27.82982621 6.13863583 27.82982621 4 25 Z M-39 42 C-37.71480435 44.86697492 -36.42870746 46.97607712 -34 49 C-33.34 49 -32.68 49 -32 49 C-31.75507812 49.57234375 -31.51015625 50.1446875 -31.2578125 50.734375 C-29.78889901 53.38024402 -28.04651756 55.14853139 -25.875 57.25 C-24.78832031 58.30960938 -24.78832031 58.30960938 -23.6796875 59.390625 C-23.12539062 59.92171875 -22.57109375 60.4528125 -22 61 C-19.08482708 59.92598892 -17.22189824 59.22189824 -15 57 C-17.68542798 55.24680497 -20.37371615 53.4980431 -23.0625 51.75 C-23.81466797 51.25886719 -24.56683594 50.76773438 -25.34179688 50.26171875 C-29.81924325 47.35428604 -34.33742697 44.60063834 -39 42 Z M43 47 C44 49 44 49 44 49 Z M41 49 C41 49.66 41 50.32 41 51 C40.18789062 51.32097656 40.18789062 51.32097656 39.359375 51.6484375 C36.1607203 53.48077943 33.79035516 55.99796606 31.25 58.625 C30.49009766 59.3984375 30.49009766 59.3984375 29.71484375 60.1875 C28.47196098 61.45383339 27.23534724 62.7263144 26 64 C27.20381448 66.49361571 28.45428722 68.68143083 30 71 C30.43570313 70.31035156 30.87140625 69.62070313 31.3203125 68.91015625 C34.76968036 63.46732255 38.26448526 58.07503825 41.93359375 52.77734375 C43.17149859 51.05962255 43.17149859 51.05962255 43 49 C42.34 49 41.68 49 41 49 Z M-35 78 C-35.66 78.66 -36.32 79.32 -37 80 C-36.34 80.66 -35.68 81.32 -35 82 C-34.34 80.68 -33.68 79.36 -33 78 C-33.66 78 -34.32 78 -35 78 Z M-63 84 C-63 84.33 -63 84.66 -63 85 C-59.37 85 -55.74 85 -52 85 C-52 84.01 -52 83.02 -52 82 C-56.08378077 82 -59.12315913 82.80712589 -63 84 Z M51 92 C54.3 91.67 57.6 91.34 61 91 C61 90.67 61 90.34 61 90 C55.41335154 89.39578469 55.41335154 89.39578469 51 92 Z M43 92 C43 92.66 43 93.32 43 94 C45.64 93.67 48.28 93.34 51 93 C51 92.67 51 92.34 51 92 C48.36 92 45.72 92 43 92 Z M-30 103 C-31.71575709 105.32254924 -33.30964789 107.6414525 -34.875 110.0625 C-35.30941406 110.71927734 -35.74382813 111.37605469 -36.19140625 112.05273438 C-38.96542561 116.28040652 -41.53233287 120.58689296 -44 125 C-40.84795019 123.60652624 -38.73828227 121.97514921 -36.328125 119.5234375 C-35.66425781 118.853125 -35.00039063 118.1828125 -34.31640625 117.4921875 C-33.29353516 116.44417969 -33.29353516 116.44417969 -32.25 115.375 C-31.55261719 114.66859375 -30.85523438 113.9621875 -30.13671875 113.234375 C-28.41987512 111.49401297 -26.70788168 109.74915019 -25 108 C-26.3553326 105.46326712 -26.3553326 105.46326712 -28 103 C-28.66 103 -29.32 103 -30 103 Z M18.875 115 C18.25625 115.66 17.6375 116.32 17 117 C19.78687098 118.84070559 22.58025127 120.67128178 25.375 122.5 C26.1690625 123.02464844 26.963125 123.54929687 27.78125 124.08984375 C28.54179688 124.58613281 29.30234375 125.08242187 30.0859375 125.59375 C30.7876709 126.05458984 31.4894043 126.51542969 32.21240234 126.99023438 C33.94805064 128.16394332 33.94805064 128.16394332 36 128 C36 128.66 36 129.32 36 130 C36.99 129.67 37.98 129.34 39 129 C36.38308836 126.32529045 33.75518292 123.66165519 31.125 121 C30.37863281 120.236875 29.63226563 119.47375 28.86328125 118.6875 C28.14785156 117.965625 27.43242188 117.24375 26.6953125 116.5 C26.03547363 115.8296875 25.37563477 115.159375 24.69580078 114.46875 C22.03283195 112.16232609 21.41112309 112.61306062 18.875 115 Z M-8 120 C-6.7144018 129.10506018 -5.01705777 138.03081643 -3 147 C-2.67 147 -2.34 147 -2 147 C-1.67 138.09 -1.34 129.18 -1 120 C-3.31 120 -5.62 120 -8 120 Z " fill="#D6352B" transform="translate(89,3)"/>
<path d="M0 0 C3.53981538 -0.70511413 6.49361128 -0.95443186 10 0 C12.37399106 2.70143811 13.95495047 5.41423263 15.625 8.59375 C16.07875 9.3878125 16.5325 10.181875 17 11 C17.66 11 18.32 11 19 11 C20.98 7.37 22.96 3.74 25 0 C26.258125 -0.020625 27.51625 -0.04125 28.8125 -0.0625 C29.52019531 -0.07410156 30.22789063 -0.08570312 30.95703125 -0.09765625 C33 0 33 0 36 1 C37.33726969 0.68282706 38.67011186 0.34682335 40 0 C41.91561254 -0.06688591 43.83335592 -0.08531719 45.75 -0.0625 C46.73484375 -0.05347656 47.7196875 -0.04445313 48.734375 -0.03515625 C49.85585937 -0.01775391 49.85585937 -0.01775391 51 0 C51 1.32 51 2.64 51 4 C50.34 4 49.68 4 49 4 C49.11430048 6.8966148 49.2410424 9.79178316 49.375 12.6875 C49.4059375 13.50412109 49.436875 14.32074219 49.46875 15.16210938 C49.67955924 19.50126633 50.01738759 23.04283457 52 27 C51 28 51 28 48.1640625 28.09765625 C46.99617188 28.08605469 45.82828125 28.07445313 44.625 28.0625 C43.46226563 28.05347656 42.29953125 28.04445313 41.1015625 28.03515625 C40.07804687 28.02355469 39.05453125 28.01195313 38 28 C34.42356421 28 30.87823909 28.25362774 27.3125 28.5 C26.61060547 28.54769531 25.90871094 28.59539062 25.18554688 28.64453125 C23.45696984 28.76212152 21.72847652 28.88094135 20 29 C20 28.01 20 27.02 20 26 C19.34 26 18.68 26 18 26 C18 26.66 18 27.32 18 28 C17.01 28.33 16.02 28.66 15 29 C14.01 28.01 13.02 27.02 12 26 C11.690625 26.66 11.38125 27.32 11.0625 28 C8.19002305 30.78543219 6.02367667 30.44003946 2.15625 30.43359375 C-0.43264246 29.91300124 -1.34185201 29.00359549 -3 27 C-2.67 26.01 -2.34 25.02 -2 24 C-1.34 24 -0.68 24 0 24 C-0.33 23.34 -0.66 22.68 -1 22 C-4.02934491 21.34227572 -4.02934491 21.34227572 -7 21 C-7 20.67 -7 20.34 -7 20 C-0.84765625 19.90234375 -0.84765625 19.90234375 1 20 C1.33 20.33 1.66 20.66 2 21 C2.33 15.39 2.66 9.78 3 4 C2.01 3.67 1.02 3.34 0 3 C0 2.01 0 1.02 0 0 Z " fill="#D83826" transform="translate(36,76)"/>
<path d="M0 0 C-1.62327656 4.73226388 -4.19742265 8.60996632 -6.9375 12.75 C-7.92857242 14.26289834 -8.9194521 15.77592297 -9.91015625 17.2890625 C-10.41949707 18.06411133 -10.92883789 18.83916016 -11.45361328 19.63769531 C-12.978831 21.96766163 -14.49010311 24.30600549 -15.99609375 26.6484375 C-16.72034546 27.77427246 -16.72034546 27.77427246 -17.45922852 28.92285156 C-18.37593563 30.34873502 -19.29184098 31.77513438 -20.20678711 33.20214844 C-23.0181531 37.56150113 -25.95600146 41.79950023 -29 46 C-27.26363281 45.93039063 -27.26363281 45.93039063 -25.4921875 45.859375 C-23.95315094 45.82183752 -22.4140863 45.78543949 -20.875 45.75 C-20.11445313 45.71648437 -19.35390625 45.68296875 -18.5703125 45.6484375 C-13.22740281 45.55631837 -10.21494227 46.40949363 -6 50 C-4.625 52.75 -4.625 52.75 -4 55 C-2.34097656 55.185625 -2.34097656 55.185625 -0.6484375 55.375 C4.40944845 56.00807167 9.38127035 56.98805478 14.375 58 C15.27605469 58.17789063 16.17710937 58.35578125 17.10546875 58.5390625 C17.96527344 58.71179688 18.82507813 58.88453125 19.7109375 59.0625 C20.87568604 59.29646484 20.87568604 59.29646484 22.06396484 59.53515625 C24 60 24 60 26 61 C26 61.66 26 62.32 26 63 C17.34795033 65.24356598 8.67358487 67.35731042 -0.0625 69.25 C-1.23872925 69.51248535 -1.23872925 69.51248535 -2.4387207 69.78027344 C-7.06407919 70.76319302 -11.27172627 71.17581894 -16 71 C-16 72.65 -16 74.3 -16 76 C-19.90028225 78.60018816 -23.47434569 78.15085514 -28 78 C-26.35 80.97 -24.7 83.94 -23 87 C-23.66 87 -24.32 87 -25 87 C-26.5078125 85.1015625 -26.5078125 85.1015625 -28.125 82.625 C-28.66382812 81.81289062 -29.20265625 81.00078125 -29.7578125 80.1640625 C-31 78 -31 78 -31 76 C-24.565 75.505 -24.565 75.505 -18 75 C-18 74.34 -18 73.68 -18 73 C-19.485 72.505 -19.485 72.505 -21 72 C-21 69.69 -21 67.38 -21 65 C-20.09507812 64.94392578 -20.09507812 64.94392578 -19.171875 64.88671875 C-15.72683687 64.60333658 -12.66939094 64.26122573 -9.4375 63 C-7.37563857 60.13132323 -7.46920854 57.61912485 -7.37109375 54.15625 C-7.84427884 51.84244355 -7.84427884 51.84244355 -9.890625 50.26171875 C-14.33848349 48.45687165 -18.55245908 48.43023953 -23.3125 48.3125 C-24.24384766 48.27833984 -25.17519531 48.24417969 -26.13476562 48.20898438 C-28.42305672 48.12684059 -30.71098104 48.05758338 -33 48 C-33.33 46.68 -33.66 45.36 -34 44 C-32.515 43.505 -32.515 43.505 -31 43 C-29.70455425 41.44778514 -29.70455425 41.44778514 -28.58984375 39.5078125 C-27.94112305 38.45013672 -27.94112305 38.45013672 -27.27929688 37.37109375 C-26.83650391 36.62988281 -26.39371094 35.88867188 -25.9375 35.125 C-25.05095152 33.66916713 -24.16423893 32.21343418 -23.27734375 30.7578125 C-22.88796631 30.1095752 -22.49858887 29.46133789 -22.09741211 28.79345703 C-21.10449084 27.17076523 -20.05524643 25.58286965 -19 24 C-19.66 24 -20.32 24 -21 24 C-21 24.66 -21 25.32 -21 26 C-22.5390625 27.515625 -22.5390625 27.515625 -24.625 29.25 C-25.34816406 29.87003906 -26.07132813 30.49007812 -26.81640625 31.12890625 C-27.89728516 32.05509766 -27.89728516 32.05509766 -29 33 C-31.21938467 34.92772016 -33.06095862 36.76264457 -35 39 C-34.7250505 41.14884258 -34.7250505 41.14884258 -34 43 C-34.99 43.495 -34.99 43.495 -36 44 C-36.66 42.35 -37.32 40.7 -38 39 C-37.525625 38.566875 -37.05125 38.13375 -36.5625 37.6875 C-34.76313043 35.97690387 -34.76313043 35.97690387 -34 33 C-32.93845703 32.37158203 -32.93845703 32.37158203 -31.85546875 31.73046875 C-28.08174304 29.4435187 -25.34808201 26.48559422 -22.3125 23.3125 C-20.24636957 21.15464346 -18.16089295 19.06655656 -16 17 C-15.34 17 -14.68 17 -14 17 C-14 16.34 -14 15.68 -14 15 C-12.824375 14.6596875 -12.824375 14.6596875 -11.625 14.3125 C-8.81921178 13.22432884 -8.81921178 13.22432884 -7.6875 10.5625 C-6.87043572 7.95926577 -6.87043572 7.95926577 -7 5 C-5.64703851 0.94111554 -4.27479763 0 0 0 Z M-19 22 C-18 24 -18 24 -18 24 Z M-11 67 C-7.7 66.67 -4.4 66.34 -1 66 C-1 65.67 -1 65.34 -1 65 C-6.58664846 64.39578469 -6.58664846 64.39578469 -11 67 Z M-19 67 C-19 67.66 -19 68.32 -19 69 C-16.36 68.67 -13.72 68.34 -11 68 C-11 67.67 -11 67.34 -11 67 C-13.64 67 -16.28 67 -19 67 Z " fill="#D3352B" transform="translate(151,28)"/>
<path d="M0 0 C3.53981538 -0.70511413 6.49361128 -0.95443186 10 0 C12.37399106 2.70143811 13.95495047 5.41423263 15.625 8.59375 C16.07875 9.3878125 16.5325 10.181875 17 11 C17.66 11 18.32 11 19 11 C20.98 7.37 22.96 3.74 25 0 C32.75 -0.125 32.75 -0.125 35 1 C34.67475342 1.57363281 34.34950684 2.14726563 34.0144043 2.73828125 C32.94495984 5.1227177 32.75449974 6.59854351 32.76953125 9.1875 C32.77146484 9.96867187 32.77339844 10.74984375 32.77539062 11.5546875 C32.78763672 12.36164063 32.79988281 13.16859375 32.8125 14 C32.81314453 14.80695313 32.81378906 15.61390625 32.81445312 16.4453125 C32.842746 20.255419 33.06314857 23.25259428 34 27 C30.04 27 26.08 27 22 27 C22.66 23.04 23.32 19.08 24 15 C20.88403088 15.66627512 20.88403088 15.66627512 19.83203125 18.06640625 C19.32736328 19.30197266 19.32736328 19.30197266 18.8125 20.5625 C18.46832031 21.38878906 18.12414062 22.21507813 17.76953125 23.06640625 C17.38861328 24.02353516 17.38861328 24.02353516 17 25 C16.01 25 15.02 25 14 25 C13.74605469 24.36191406 13.49210937 23.72382812 13.23046875 23.06640625 C12.88628906 22.24011719 12.54210938 21.41382812 12.1875 20.5625 C11.85105469 19.73878906 11.51460937 18.91507813 11.16796875 18.06640625 C10.11596912 15.66627512 10.11596912 15.66627512 7 15 C7.0721875 15.60328125 7.144375 16.2065625 7.21875 16.828125 C7.35796875 18.02695313 7.35796875 18.02695313 7.5 19.25 C7.5928125 20.03890625 7.685625 20.8278125 7.78125 21.640625 C8 24 8 24 8 28 C5.36 28 2.72 28 0 28 C0 27.01 0 26.02 0 25 C0.66 24.67 1.32 24.34 2 24 C2.33 17.4 2.66 10.8 3 4 C2.01 3.67 1.02 3.34 0 3 C0 2.01 0 1.02 0 0 Z " fill="#FBF107" transform="translate(36,76)"/>
<path d="M0 0 C3.93252896 -0.18119161 6.3246225 0.14572213 10.0390625 1.64453125 C12.67068015 4.41110365 12.93623995 5.06786579 13.1640625 8.70703125 C12.91394477 12.00749775 12.59335768 13.05256021 10.5390625 15.76953125 C6.42570688 17.70029001 2.94297693 17.55733826 -1.5234375 17.20703125 C-1.26782427 19.55015255 -0.93072978 21.88546528 -0.5234375 24.20703125 C0.1365625 24.53703125 0.7965625 24.86703125 1.4765625 25.20703125 C1.4765625 25.86703125 1.4765625 26.52703125 1.4765625 27.20703125 C-1.16802129 28.52932314 -3.20105051 28.30380319 -6.1484375 28.26953125 C-7.15132813 28.26050781 -8.15421875 28.25148438 -9.1875 28.2421875 C-9.95835938 28.23058594 -10.72921875 28.21898438 -11.5234375 28.20703125 C-11.5234375 26.88703125 -11.5234375 25.56703125 -11.5234375 24.20703125 C-10.8634375 24.20703125 -10.2034375 24.20703125 -9.5234375 24.20703125 C-9.5234375 17.60703125 -9.5234375 11.00703125 -9.5234375 4.20703125 C-10.8434375 3.87703125 -12.1634375 3.54703125 -13.5234375 3.20703125 C-13.5234375 2.54703125 -13.5234375 1.88703125 -13.5234375 1.20703125 C-9.02047436 0.73569305 -4.51208243 0.37018633 0 0 Z " fill="#FAEE07" transform="translate(131.5234375,75.79296875)"/>
<path d="M0 0 C3.26256822 3.02952764 5.8453557 6.0897196 8 10 C8 14.57541668 5.31547958 18.19066262 3 22 C0.36115891 20.98973239 -0.78255858 20.4086399 -2.1328125 17.87109375 C-2.62394531 16.66646484 -2.62394531 16.66646484 -3.125 15.4375 C-4.2697821 12.96862264 -4.2697821 12.96862264 -6 11 C-9.36655523 9.92435716 -12.48650978 9.82944222 -16 10 C-15.505 11.485 -15.505 11.485 -15 13 C-14.34 13.33 -13.68 13.66 -13 14 C-13 20.6 -13 27.2 -13 34 C-13.66 33.01 -14.32 32.02 -15 31 C-17.01336202 31.03471314 -19.02679436 31.07745351 -21.0390625 31.15234375 C-26.22311557 30.88561806 -31.1613823 29.35362469 -36.15625 28.0234375 C-40.41717181 26.88892377 -44.68958311 25.92366076 -49 25 C-49 24.34 -49 23.68 -49 23 C-38.39701014 20.22235505 -27.79582332 17.89501154 -17 16 C-17.33 14.02 -17.66 12.04 -18 10 C-14.80254858 7.86836572 -13.71242084 7.68024436 -10 7.625 C-9.13375 7.59664063 -8.2675 7.56828125 -7.375 7.5390625 C-4.24741672 8.14606057 -3.82067745 9.49718194 -2 12 C0.0488648 12.48057715 0.0488648 12.48057715 2.1875 12.25 C4.0746875 12.12625 4.0746875 12.12625 6 12 C5.566875 11.38511719 5.13375 10.77023438 4.6875 10.13671875 C4.130625 9.32847656 3.57375 8.52023438 3 7.6875 C2.443125 6.88699219 1.88625 6.08648437 1.3125 5.26171875 C0 3 0 3 0 0 Z M2 15 C1.34 15.66 0.68 16.32 0 17 C0.66 17.66 1.32 18.32 2 19 C2.66 17.68 3.32 16.36 4 15 C3.34 15 2.68 15 2 15 Z M-26 21 C-26 21.33 -26 21.66 -26 22 C-22.37 22 -18.74 22 -15 22 C-15 21.01 -15 20.02 -15 19 C-19.08378077 19 -22.12315913 19.80712589 -26 21 Z " fill="#D5382A" transform="translate(52,66)"/>
<path d="M0 0 C2 3 2 3 2 7 C-1.37462715 6.45276317 -3.08235 5.9451 -6 4 C-7.65549531 3.61500109 -9.3222433 3.27206865 -11 3 C-11 4.65 -11 6.3 -11 8 C-10.31292969 8.18175781 -9.62585938 8.36351563 -8.91796875 8.55078125 C-8.01691406 8.80214844 -7.11585937 9.05351563 -6.1875 9.3125 C-5.29417969 9.55613281 -4.40085937 9.79976562 -3.48046875 10.05078125 C-0.89364061 11.04070131 0.35139995 11.7947298 2 14 C2.50310845 17.952995 2.69560185 20.08081184 0.25 23.3125 C-5.05898636 27.29423977 -9.48151958 27.65395758 -16 27 C-19.0625 25.9375 -19.0625 25.9375 -21 24 C-21.8125 20.3125 -21.8125 20.3125 -22 17 C-19.77064705 17.99936512 -18.21854466 18.74171995 -16.625 20.625 C-14.19604762 22.6802674 -12.06626911 22.20441794 -9 22 C-9 21.01 -9 20.02 -9 19 C-9.53109375 18.75765625 -10.0621875 18.5153125 -10.609375 18.265625 C-18.625966 14.46213292 -18.625966 14.46213292 -21 11 C-21.5 7.5 -21.5 7.5 -21 4 C-15.99338364 -2.56039385 -7.38977281 -1.93541669 0 0 Z " fill="#FBF307" transform="translate(113,77)"/>
<path d="M0 0 C0.99386719 0.00902344 1.98773438 0.01804687 3.01171875 0.02734375 C4.15060547 0.04474609 4.15060547 0.04474609 5.3125 0.0625 C5.3125 1.3825 5.3125 2.7025 5.3125 4.0625 C4.6525 4.0625 3.9925 4.0625 3.3125 4.0625 C3.42680048 6.9591148 3.5535424 9.85428316 3.6875 12.75 C3.7184375 13.56662109 3.749375 14.38324219 3.78125 15.22460938 C3.99205924 19.56376633 4.32988759 23.10533457 6.3125 27.0625 C5.3125 28.0625 5.3125 28.0625 2.37109375 28.16015625 C1.17613281 28.14855469 -0.01882812 28.13695313 -1.25 28.125 C-3.04630859 28.11146484 -3.04630859 28.11146484 -4.87890625 28.09765625 C-5.80574219 28.08605469 -6.73257813 28.07445313 -7.6875 28.0625 C-7.52596436 27.49337891 -7.36442871 26.92425781 -7.19799805 26.33789062 C-6.32521952 22.44774434 -6.50299509 18.53399359 -6.5 14.5625 C-6.48775391 13.70785156 -6.47550781 12.85320312 -6.46289062 11.97265625 C-6.46095703 11.14636719 -6.45902344 10.32007812 -6.45703125 9.46875 C-6.45292236 8.71916016 -6.44881348 7.96957031 -6.44458008 7.19726562 C-6.71913296 4.78451143 -7.48999675 3.15790822 -8.6875 1.0625 C-5.53819107 0.01273036 -3.29935544 -0.03881595 0 0 Z " fill="#FAED07" transform="translate(81.6875,75.9375)"/>
<path d="M0 0 C-1.62327656 4.73226388 -4.19742265 8.60996632 -6.9375 12.75 C-7.92857242 14.26289834 -8.9194521 15.77592297 -9.91015625 17.2890625 C-10.41949707 18.06411133 -10.92883789 18.83916016 -11.45361328 19.63769531 C-12.978831 21.96766163 -14.49010311 24.30600549 -15.99609375 26.6484375 C-16.72034546 27.77427246 -16.72034546 27.77427246 -17.45922852 28.92285156 C-18.37593563 30.34873502 -19.29184098 31.77513438 -20.20678711 33.20214844 C-23.0181531 37.56150113 -25.95600146 41.79950023 -29 46 C-23.39 46 -17.78 46 -12 46 C-12.33 46.66 -12.66 47.32 -13 48 C-19.6 48 -26.2 48 -33 48 C-33.33 46.68 -33.66 45.36 -34 44 C-32.515 43.505 -32.515 43.505 -31 43 C-29.70455425 41.44778514 -29.70455425 41.44778514 -28.58984375 39.5078125 C-27.94112305 38.45013672 -27.94112305 38.45013672 -27.27929688 37.37109375 C-26.83650391 36.62988281 -26.39371094 35.88867188 -25.9375 35.125 C-25.05095152 33.66916713 -24.16423893 32.21343418 -23.27734375 30.7578125 C-22.88796631 30.1095752 -22.49858887 29.46133789 -22.09741211 28.79345703 C-21.10449084 27.17076523 -20.05524643 25.58286965 -19 24 C-19.66 24 -20.32 24 -21 24 C-21 24.66 -21 25.32 -21 26 C-22.5390625 27.515625 -22.5390625 27.515625 -24.625 29.25 C-25.34816406 29.87003906 -26.07132813 30.49007812 -26.81640625 31.12890625 C-27.89728516 32.05509766 -27.89728516 32.05509766 -29 33 C-31.21938467 34.92772016 -33.06095862 36.76264457 -35 39 C-34.7250505 41.14884258 -34.7250505 41.14884258 -34 43 C-34.99 43.495 -34.99 43.495 -36 44 C-36.66 42.35 -37.32 40.7 -38 39 C-37.525625 38.566875 -37.05125 38.13375 -36.5625 37.6875 C-34.76313043 35.97690387 -34.76313043 35.97690387 -34 33 C-32.93845703 32.37158203 -32.93845703 32.37158203 -31.85546875 31.73046875 C-28.08174304 29.4435187 -25.34808201 26.48559422 -22.3125 23.3125 C-20.24636957 21.15464346 -18.16089295 19.06655656 -16 17 C-15.34 17 -14.68 17 -14 17 C-14 16.34 -14 15.68 -14 15 C-12.824375 14.6596875 -12.824375 14.6596875 -11.625 14.3125 C-8.81921178 13.22432884 -8.81921178 13.22432884 -7.6875 10.5625 C-6.87043572 7.95926577 -6.87043572 7.95926577 -7 5 C-5.64703851 0.94111554 -4.27479763 0 0 0 Z M-19 22 C-18 24 -18 24 -18 24 Z " fill="#BF3D38" transform="translate(151,28)"/>
<path d="M0 0 C-0.99 0.33 -1.98 0.66 -3 1 C-3.71364708 2.64709747 -4.37312414 4.31796288 -5 6 C-6.07871909 7.67653139 -7.20637619 9.32234962 -8.375 10.9375 C-8.99246094 11.79988281 -9.60992187 12.66226563 -10.24609375 13.55078125 C-11.11427734 14.76314453 -11.11427734 14.76314453 -12 16 C-13.35282904 17.9880705 -14.67831005 19.99103128 -16 22 C-11.6901878 18.43972036 -7.54908001 14.73018041 -3.5 10.875 C-2.6234375 10.04742187 -1.746875 9.21984375 -0.84375 8.3671875 C1.28434515 6.19344354 1.28434515 6.19344354 0.78125 3.6953125 C0.5234375 3.13585937 0.265625 2.57640625 0 2 C0.66 2 1.32 2 2 2 C2.77661133 4.18237305 2.77661133 4.18237305 3 7 C1.2175293 9.49536133 1.2175293 9.49536133 -1.42578125 12.08203125 C-2.11996407 12.77059456 -2.11996407 12.77059456 -2.82817078 13.47306824 C-3.807457 14.43892674 -4.79390469 15.39757035 -5.78686523 16.34936523 C-7.31059885 17.81067673 -8.81183058 19.29237956 -10.31054688 20.77929688 C-17.6727794 28 -17.6727794 28 -20 28 C-20.226875 28.5775 -20.45375 29.155 -20.6875 29.75 C-22 32 -22 32 -24.5625 34 C-27.08066518 36.06618681 -27.6619668 36.84502343 -28 40 C-26.02 39.505 -26.02 39.505 -24 39 C-24 39.66 -24 40.32 -24 41 C-25.64453125 42.2890625 -25.64453125 42.2890625 -27.8125 43.625 C-28.52019531 44.07101563 -29.22789063 44.51703125 -29.95703125 44.9765625 C-32 46 -32 46 -35 46 C-33.68596521 42.45399225 -32.12454557 39.41617265 -30.0625 36.25 C-29.44246094 35.29351562 -28.82242188 34.33703125 -28.18359375 33.3515625 C-27.83796387 32.82208008 -27.49233398 32.29259766 -27.13623047 31.74707031 C-25.88546056 29.82388391 -24.64724385 27.89295191 -23.41015625 25.9609375 C-19.00043019 19.08607922 -14.55187674 12.23969429 -9.9375 5.5 C-9.22464844 4.4584375 -8.51179688 3.416875 -7.77734375 2.34375 C-5.14131158 -1.13233637 -3.99265453 -1.19779636 0 0 Z " fill="#B93935" transform="translate(62,105)"/>
<path d="M0 0 C3.8697943 1.58397665 6.51617198 4.20990152 9.421875 7.12109375 C9.92672424 7.62165787 10.43157349 8.12222198 10.95172119 8.63795471 C12.01316119 9.69366914 13.07201379 10.75199063 14.12841797 11.81274414 C15.74976198 13.43726151 17.38401316 15.04797149 19.01953125 16.65820312 C20.05028895 17.68668907 21.08026465 18.71595946 22.109375 19.74609375 C22.59992371 20.22743271 23.09047241 20.70877167 23.59588623 21.20469666 C27 24.65618553 27 24.65618553 27 28 C29.64998774 29.41963629 32.08650816 30.29674335 35 31 C35.33 31.33 35.66 31.66 36 32 C35.34 30.68 34.68 29.36 34 28 C38.02550319 29.3418344 38.88285636 31.4227573 41 35 C41 35.66 41 36.32 41 37 C37.67852925 36.35163071 35.2497875 35.11122929 32.375 33.34375 C31.49585938 32.80363281 30.61671875 32.26351562 29.7109375 31.70703125 C24.59800596 28.48750519 19.54770998 25.17591547 14.5 21.85546875 C9.36527994 18.49383171 4.17588001 15.30663351 -1.1640625 12.27929688 C-1.76992187 11.85712891 -2.37578125 11.43496094 -3 11 C-3 10.34 -3 9.68 -3 9 C-4.32 9 -5.64 9 -7 9 C-7.33 10.65 -7.66 12.3 -8 14 C-8.33 14 -8.66 14 -9 14 C-9 11.36 -9 8.72 -9 6 C-8.34 6 -7.68 6 -7 6 C-6.54625 5.525625 -6.0925 5.05125 -5.625 4.5625 C-3.77022513 2.77906263 -2.49864408 2.4308007 0 2 C0 1.34 0 0.68 0 0 Z M-2.125 4 C-2.74375 4.66 -3.3625 5.32 -4 6 C-1.21312902 7.84070559 1.58025127 9.67128178 4.375 11.5 C5.1690625 12.02464844 5.963125 12.54929687 6.78125 13.08984375 C7.54179688 13.58613281 8.30234375 14.08242187 9.0859375 14.59375 C9.7876709 15.05458984 10.4894043 15.51542969 11.21240234 15.99023438 C12.94805064 17.16394332 12.94805064 17.16394332 15 17 C15 17.66 15 18.32 15 19 C15.99 18.67 16.98 18.34 18 18 C15.38308836 15.32529045 12.75518292 12.66165519 10.125 10 C9.37863281 9.236875 8.63226563 8.47375 7.86328125 7.6875 C7.14785156 6.965625 6.43242188 6.24375 5.6953125 5.5 C5.03547363 4.8296875 4.37563477 4.159375 3.69580078 3.46875 C1.03283195 1.16232609 0.41112309 1.61306062 -2.125 4 Z " fill="#BA3834" transform="translate(110,114)"/>
<path d="M0 0 C0.66 0 1.32 0 2 0 C4.65764945 10.06780145 6.97672503 20.20036515 9.1875 30.375 C9.44934082 31.56254883 9.71118164 32.75009766 9.98095703 33.97363281 C11.41392247 40.64088958 12.52248225 47.19415636 13 54 C14.423125 53.2265625 14.423125 53.2265625 15.875 52.4375 C16.90625 51.963125 17.9375 51.48875 19 51 C19.66 51.33 20.32 51.66 21 52 C18.42994773 54.6068725 16.26185451 55.9993959 13 58 C9.37 57.34 5.74 56.68 2 56 C2 48.08 2 40.16 2 32 C2.66 32 3.32 32 4 32 C4.02716824 34.54173977 4.04691969 37.08318415 4.0625 39.625 C4.07087891 40.33785156 4.07925781 41.05070312 4.08789062 41.78515625 C4.10710296 45.97344438 3.8267327 49.8728462 3 54 C5.31 54.33 7.62 54.66 10 55 C9.16759036 50.62101618 8.33132411 46.24279211 7.49145508 41.86523438 C7.20620965 40.37552919 6.92202439 38.88562061 6.63891602 37.39550781 C6.23210876 35.25531694 5.8215109 33.11588337 5.41015625 30.9765625 C5.16402588 29.68830566 4.91789551 28.40004883 4.66430664 27.07275391 C4.1555699 24.104379 4.1555699 24.104379 3 22 C3.03255208 20.01432292 3.06510417 18.02864583 3.09765625 16.04296875 C2.97151653 13.40412586 2.17436876 11.34873751 1 9 C0.34 9 -0.32 9 -1 9 C-1.125 2.25 -1.125 2.25 0 0 Z " fill="#BC413C" transform="translate(89,3)"/>
<path d="M0 0 C3.26256822 3.02952764 5.8453557 6.0897196 8 10 C8 14.57541668 5.31547958 18.19066262 3 22 C0.36115891 20.98973239 -0.78255858 20.4086399 -2.1328125 17.87109375 C-2.62394531 16.66646484 -2.62394531 16.66646484 -3.125 15.4375 C-4.2697821 12.96862264 -4.2697821 12.96862264 -6 11 C-9.36655523 9.92435716 -12.48650978 9.82944222 -16 10 C-15.67257813 10.56203125 -15.34515625 11.1240625 -15.0078125 11.703125 C-13.36147581 15.45524118 -13.88056547 18.93922613 -14 23 C-18.29 23 -22.58 23 -27 23 C-27 22.67 -27 22.34 -27 22 C-23.04 22 -19.08 22 -15 22 C-15 21.01 -15 20.02 -15 19 C-16.216875 19.33 -17.43375 19.66 -18.6875 20 C-21.87210604 20.80322213 -24.6972843 21.20641973 -28 21 C-28 21.66 -28 22.32 -28 23 C-31.96 22.67 -35.92 22.34 -40 22 C-37.10710817 20.07140545 -35.64502085 19.56274284 -32.33203125 18.9296875 C-31.43935547 18.75566406 -30.54667969 18.58164063 -29.62695312 18.40234375 C-28.69818359 18.22832031 -27.76941406 18.05429688 -26.8125 17.875 C-25.87212891 17.69324219 -24.93175781 17.51148437 -23.96289062 17.32421875 C-21.64302171 16.87673135 -19.32212941 16.43557758 -17 16 C-17.33 14.02 -17.66 12.04 -18 10 C-14.80254858 7.86836572 -13.71242084 7.68024436 -10 7.625 C-9.13375 7.59664063 -8.2675 7.56828125 -7.375 7.5390625 C-4.24741672 8.14606057 -3.82067745 9.49718194 -2 12 C0.0488648 12.48057715 0.0488648 12.48057715 2.1875 12.25 C4.0746875 12.12625 4.0746875 12.12625 6 12 C5.566875 11.38511719 5.13375 10.77023438 4.6875 10.13671875 C4.130625 9.32847656 3.57375 8.52023438 3 7.6875 C2.443125 6.88699219 1.88625 6.08648437 1.3125 5.26171875 C0 3 0 3 0 0 Z M2 15 C1.34 15.66 0.68 16.32 0 17 C0.66 17.66 1.32 18.32 2 19 C2.66 17.68 3.32 16.36 4 15 C3.34 15 2.68 15 2 15 Z " fill="#C13F36" transform="translate(52,66)"/>
<path d="M0 0 C8.45630167 0.02856859 16.87701798 0.58479975 25.3125 1.1328125 C22.92699263 3.51831987 21.59293126 3.70764045 18.33203125 4.421875 C17.33236328 4.64101562 16.33269531 4.86015625 15.30273438 5.0859375 C13.72975586 5.41851562 13.72975586 5.41851562 12.125 5.7578125 C11.09568359 5.98726563 10.06636719 6.21671875 9.00585938 6.453125 C3.66744292 7.60220119 -1.22659278 8.42632661 -6.6875 8.1328125 C-6.6875 9.7828125 -6.6875 11.4328125 -6.6875 13.1328125 C-10.58778225 15.73300066 -14.16184569 15.28366764 -18.6875 15.1328125 C-17.0375 18.1028125 -15.3875 21.0728125 -13.6875 24.1328125 C-14.3475 24.1328125 -15.0075 24.1328125 -15.6875 24.1328125 C-17.1953125 22.234375 -17.1953125 22.234375 -18.8125 19.7578125 C-19.35132812 18.94570312 -19.89015625 18.13359375 -20.4453125 17.296875 C-21.6875 15.1328125 -21.6875 15.1328125 -21.6875 13.1328125 C-15.2525 12.6378125 -15.2525 12.6378125 -8.6875 12.1328125 C-8.6875 11.4728125 -8.6875 10.8128125 -8.6875 10.1328125 C-9.6775 9.8028125 -10.6675 9.4728125 -11.6875 9.1328125 C-11.6875 6.8228125 -11.6875 4.5128125 -11.6875 2.1328125 C-10.73037109 2.04193359 -10.73037109 2.04193359 -9.75390625 1.94921875 C-8.92761719 1.86542969 -8.10132813 1.78164062 -7.25 1.6953125 C-6.42628906 1.61410156 -5.60257813 1.53289062 -4.75390625 1.44921875 C-2.54512077 1.11101152 -2.12937516 0.16758971 0 0 Z M-1.6875 4.1328125 C1.6125 3.8028125 4.9125 3.4728125 8.3125 3.1328125 C8.3125 2.8028125 8.3125 2.4728125 8.3125 2.1328125 C2.72585154 1.52859719 2.72585154 1.52859719 -1.6875 4.1328125 Z M-9.6875 4.1328125 C-9.6875 4.7928125 -9.6875 5.4528125 -9.6875 6.1328125 C-7.0475 5.8028125 -4.4075 5.4728125 -1.6875 5.1328125 C-1.6875 4.8028125 -1.6875 4.4728125 -1.6875 4.1328125 C-4.3275 4.1328125 -6.9675 4.1328125 -9.6875 4.1328125 Z " fill="#C23F31" transform="translate(141.6875,90.8671875)"/>
<path d="M0 0 C0.99 0 1.98 0 3 0 C3.65035371 2.51974253 4.29537493 5.04065935 4.9375 7.5625 C5.11990234 8.26697266 5.30230469 8.97144531 5.49023438 9.69726562 C6.6115514 14.12137098 7.43456329 18.47055438 8 23 C8.33 18.71 8.66 14.42 9 10 C9.66 10 10.32 10 11 10 C11.02891949 14.29165262 11.04677118 18.58328036 11.0625 22.875 C11.07087891 24.09832031 11.07925781 25.32164062 11.08789062 26.58203125 C11.09111328 27.74863281 11.09433594 28.91523438 11.09765625 30.1171875 C11.10289307 31.19597168 11.10812988 32.27475586 11.11352539 33.38623047 C11 36 11 36 10 38 C10.24621907 39.88484944 10.56888087 41.76022087 10.9375 43.625 C11.13214844 44.62789062 11.32679687 45.63078125 11.52734375 46.6640625 C11.68332031 47.43492187 11.83929688 48.20578125 12 49 C12.66 48.34 13.32 47.68 14 47 C13.67 49.31 13.34 51.62 13 54 C12.34 54 11.68 54 11 54 C8.67017856 45.00002987 6.5479057 36.01624127 4.79296875 26.8828125 C3.75968592 21.82328967 2.54580598 16.81236279 1.26953125 11.80883789 C0.27874322 7.78327774 -0.18745508 4.14340369 0 0 Z " fill="#BD3C36" transform="translate(78,123)"/>
<path d="M0 0 C3.27774758 1.22134442 6.06792086 2.56800044 8.9375 4.5625 C12.87753576 7.25037797 16.85969898 9.86381227 20.875 12.4375 C21.47159424 12.82059326 22.06818848 13.20368652 22.68286133 13.59838867 C27.33960085 16.58529044 32.012706 19.54598827 36.6953125 22.4921875 C38.86907368 23.91434312 40.94198116 25.41617905 43 27 C43.66 24.69 44.32 22.38 45 20 C45.66 20.33 46.32 20.66 47 21 C46.67 23.64 46.34 26.28 46 29 C45.34 29 44.68 29 44 29 C44 29.66 44 30.32 44 31 C42.68 31.33 41.36 31.66 40 32 C40 31.01 40 30.02 40 29 C37.7922893 27.17578751 37.7922893 27.17578751 34.890625 25.4609375 C33.82585937 24.79835938 32.76109375 24.13578125 31.6640625 23.453125 C30.53742187 22.76734375 29.41078125 22.0815625 28.25 21.375 C27.13882813 20.68148437 26.02765625 19.98796875 24.8828125 19.2734375 C18.76191316 15.38603485 18.76191316 15.38603485 12 13 C10.25390625 11.2578125 10.25390625 11.2578125 8.5625 9.125 C5.94607728 5.96724844 3.62730694 3.97853106 0 2 C0 1.34 0 0.68 0 0 Z " fill="#B33734" transform="translate(33,31)"/>
<path d="M0 0 C3.6875 0.25 3.6875 0.25 6.125 1.1875 C8.33403866 4.10343103 8.31226875 6.49271835 8.125 10.0859375 C7.6875 12.25 7.6875 12.25 5.75 14.8125 C1.63664438 16.74325876 -1.84608557 16.60030701 -6.3125 16.25 C-5.6525 15.92 -4.9925 15.59 -4.3125 15.25 C-4.3125 14.59 -4.3125 13.93 -4.3125 13.25 C-2.9925 12.92 -1.6725 12.59 -0.3125 12.25 C0.17239837 7.11274018 0.17239837 7.11274018 -2.3125 2.8125 C-2.9725 2.296875 -3.6325 1.78125 -4.3125 1.25 C-3.3125 0.25 -3.3125 0.25 0 0 Z " fill="#FCF607" transform="translate(136.3125,76.75)"/>
<path d="M0 0 C1.859375 0.21484375 1.859375 0.21484375 4 1 C5.265625 3.06640625 5.265625 3.06640625 6.25 5.5625 C6.58515625 6.38878906 6.9203125 7.21507813 7.265625 8.06640625 C7.50796875 8.70449219 7.7503125 9.34257813 8 10 C8.61875 9.814375 9.2375 9.62875 9.875 9.4375 C12 9 12 9 14 10 C13.67 10.99 13.34 11.98 13 13 C13 12.34 13 11.68 13 11 C12.34 11 11.68 11 11 11 C11 11.66 11 12.32 11 13 C10.01 13.33 9.02 13.66 8 14 C7.01 13.01 6.02 12.02 5 11 C4.690625 11.66 4.38125 12.32 4.0625 13 C1.19002305 15.78543219 -0.97632333 15.44003946 -4.84375 15.43359375 C-7.43264246 14.91300124 -8.34185201 14.00359549 -10 12 C-9.67 11.01 -9.34 10.02 -9 9 C-8.34 9 -7.68 9 -7 9 C-7.33 8.34 -7.66 7.68 -8 7 C-11.02934491 6.34227572 -11.02934491 6.34227572 -14 6 C-14 5.67 -14 5.34 -14 5 C-11.36 5 -8.72 5 -6 5 C-5.67 6.65 -5.34 8.3 -5 10 C-5.66 10 -6.32 10 -7 10 C-7 10.99 -7 11.98 -7 13 C-4.36 12.67 -1.72 12.34 1 12 C0.67 11.01 0.34 10.02 0 9 C-0.06740865 7.43881572 -0.08514456 5.8749748 -0.0625 4.3125 C-0.05347656 3.50425781 -0.04445313 2.69601563 -0.03515625 1.86328125 C-0.02355469 1.24839844 -0.01195312 0.63351563 0 0 Z " fill="#C13A31" transform="translate(43,91)"/>
<path d="M0 0 C-1.47310357 4.0869181 -3.44769512 7.54759957 -5.8125 11.1875 C-6.47894531 12.23292969 -7.14539063 13.27835938 -7.83203125 14.35546875 C-10.1622611 17.19792931 -11.62921318 17.79246856 -15 19 C-15.33 19.99 -15.66 20.98 -16 22 C-16.99 22 -17.98 22 -19 22 C-19 22.66 -19 23.32 -19 24 C-19.66 24 -20.32 24 -21 24 C-21 24.66 -21 25.32 -21 26 C-22.5390625 27.515625 -22.5390625 27.515625 -24.625 29.25 C-25.34816406 29.87003906 -26.07132813 30.49007812 -26.81640625 31.12890625 C-27.89728516 32.05509766 -27.89728516 32.05509766 -29 33 C-31.21938467 34.92772016 -33.06095862 36.76264457 -35 39 C-34.7250505 41.14884258 -34.7250505 41.14884258 -34 43 C-34.99 43.495 -34.99 43.495 -36 44 C-36.66 42.35 -37.32 40.7 -38 39 C-37.525625 38.566875 -37.05125 38.13375 -36.5625 37.6875 C-34.76313043 35.97690387 -34.76313043 35.97690387 -34 33 C-32.93845703 32.37158203 -32.93845703 32.37158203 -31.85546875 31.73046875 C-28.08174304 29.4435187 -25.34808201 26.48559422 -22.3125 23.3125 C-20.24636957 21.15464346 -18.16089295 19.06655656 -16 17 C-15.34 17 -14.68 17 -14 17 C-14 16.34 -14 15.68 -14 15 C-12.824375 14.6596875 -12.824375 14.6596875 -11.625 14.3125 C-8.81921178 13.22432884 -8.81921178 13.22432884 -7.6875 10.5625 C-6.87043572 7.95926577 -6.87043572 7.95926577 -7 5 C-5.64703851 0.94111554 -4.27479763 0 0 0 Z " fill="#BA322F" transform="translate(151,28)"/>
<path d="M0 0 C0.86625 0.598125 1.7325 1.19625 2.625 1.8125 C5.62619944 3.82044534 8.73775706 5.44655098 12 7 C11.67 8.32 11.34 9.64 11 11 C7.81858133 11.46557346 5.74656877 11.50963377 3.04296875 9.6640625 C1.3064392 8.15741976 -0.369718 6.62063536 -2 5 C-1.34 4.01 -0.68 3.02 0 2 C0 1.34 0 0.68 0 0 Z " fill="#D84323" transform="translate(93,89)"/>
<path d="M0 0 C0.99 0 1.98 0 3 0 C3.05422947 1.4370809 3.09289723 2.87475462 3.125 4.3125 C3.14820313 5.11300781 3.17140625 5.91351563 3.1953125 6.73828125 C3 9 3 9 1 12 C4.96 12 8.92 12 13 12 C13.33 11.34 13.66 10.68 14 10 C14 10.99 14 11.98 14 13 C9.05 13.33 4.1 13.66 -1 14 C-0.67 12.68 -0.34 11.36 0 10 C-0.99 9.67 -1.98 9.34 -3 9 C-2.5020163 5.26512223 -2.12508244 3.18762365 0 0 Z " fill="#DB5C1F" transform="translate(57,91)"/>
<path d="M0 0 C5.19088499 0.40712823 8.41232454 1.08617223 12 5 C12 6.65 12 8.3 12 10 C8.04 8.35 4.08 6.7 0 5 C0 3.35 0 1.7 0 0 Z " fill="#D84722" transform="translate(102,80)"/>
<path d="M0 0 C4 1 4 1 5.265625 3.06640625 C5.59046875 3.89011719 5.9153125 4.71382813 6.25 5.5625 C6.58515625 6.38878906 6.9203125 7.21507813 7.265625 8.06640625 C7.50796875 8.70449219 7.7503125 9.34257813 8 10 C8.61875 9.814375 9.2375 9.62875 9.875 9.4375 C12 9 12 9 14 10 C13.67 10.99 13.34 11.98 13 13 C13 12.34 13 11.68 13 11 C12.34 11 11.68 11 11 11 C11 11.66 11 12.32 11 13 C10.01 13.33 9.02 13.66 8 14 C6.62437146 12.71034824 5.29233607 11.37310707 4 10 C4 9.34 4 8.68 4 8 C3.01 7.67 2.02 7.34 1 7 C0.67 7.66 0.34 8.32 0 9 C0 6.03 0 3.06 0 0 Z " fill="#D64520" transform="translate(43,91)"/>
<path d="M0 0 C1.66611905 -0.042721 3.33382885 -0.04063832 5 0 C6 1 6 1 6.125 4.5 C6 8 6 8 5 9 C3.33382885 9.04063832 1.66611905 9.042721 0 9 C0 6.03 0 3.06 0 0 Z " fill="#D63825" transform="translate(130,80)"/>
<path d="M0 0 C2 3 2 3 2 7 C-2.38889325 6.33501617 -5.9811485 4.81242323 -10 3 C-6.71936549 -0.02827801 -4.42849243 -0.57762945 0 0 Z " fill="#F9E80B" transform="translate(113,77)"/>
<path d="M0 0 C-0.33 0.66 -0.66 1.32 -1 2 C4.445 3.485 4.445 3.485 10 5 C10 5.33 10 5.66 10 6 C3.85845775 5.41509121 -2.00679849 4.45933748 -8 3 C-8 2.34 -8 1.68 -8 1 C-5.29120665 -0.35439668 -2.99066732 -0.06501451 0 0 Z " fill="#BF3D3A" transform="translate(11,88)"/>
<path d="M0 0 C0.886875 -0.01417969 1.77375 -0.02835937 2.6875 -0.04296875 C5 0.1875 5 0.1875 7 2.1875 C6.625 4.3125 6.625 4.3125 6 6.1875 C5.34 5.1975 4.68 4.2075 4 3.1875 C1.57478506 2.60560734 1.57478506 2.60560734 -1.125 2.5 C-2.03507812 2.43425781 -2.94515625 2.36851563 -3.8828125 2.30078125 C-4.58148438 2.26339844 -5.28015625 2.22601563 -6 2.1875 C-6 3.8375 -6 5.4875 -6 7.1875 C-6.66 6.8575 -7.32 6.5275 -8 6.1875 C-7.625 3.75 -7.625 3.75 -7 1.1875 C-4.52224905 -0.05137548 -2.76346293 0.02008331 0 0 Z " fill="#BC4632" transform="translate(42,73.8125)"/>
<path d="M0 0 C0.66 0.33 1.32 0.66 2 1 C0.57494141 2.33804688 0.57494141 2.33804688 -0.87890625 3.703125 C-2.1074166 4.88474564 -3.33524624 6.06707429 -4.5625 7.25 C-5.19091797 7.83652344 -5.81933594 8.42304687 -6.46679688 9.02734375 C-7.05654297 9.60097656 -7.64628906 10.17460938 -8.25390625 10.765625 C-8.80377197 11.28930664 -9.3536377 11.81298828 -9.92016602 12.35253906 C-11.25184292 13.98564391 -11.25184292 13.98564391 -10.67163086 16.20214844 C-10.44999268 16.79543945 -10.22835449 17.38873047 -10 18 C-10.66 18.33 -11.32 18.66 -12 19 C-12.66 17.35 -13.32 15.7 -14 14 C-13.525625 13.566875 -13.05125 13.13375 -12.5625 12.6875 C-10.76313043 10.97690387 -10.76313043 10.97690387 -10 8 C-8.34151823 6.98648336 -6.67334039 5.98879205 -5 5 C-3.2958946 3.37163262 -1.61974559 1.71230248 0 0 Z " fill="#C23937" transform="translate(127,53)"/>
<path d="M0 0 C1.958964 0.30852185 3.91715713 0.6219418 5.875 0.9375 C6.96554688 1.11152344 8.05609375 1.28554687 9.1796875 1.46484375 C12 2 12 2 14 3 C14 3.66 14 4.32 14 5 C8.58461538 6.23076923 8.58461538 6.23076923 5.625 5.0625 C5.08875 4.711875 4.5525 4.36125 4 4 C4.33 3.34 4.66 2.68 5 2 C3.35 2 1.7 2 0 2 C0 1.34 0 0.68 0 0 Z " fill="#BD3D3A" transform="translate(163,86)"/>
<path d="M0 0 C4.02550319 1.3418344 4.88285636 3.4227573 7 7 C7 7.66 7 8.32 7 9 C2.80639551 8.32902328 -0.40334352 6.1441606 -4 4 C-4 3.67 -4 3.34 -4 3 C-2.33388095 2.957279 -0.66617115 2.95936168 1 3 C1.33 3.33 1.66 3.66 2 4 C1.34 2.68 0.68 1.36 0 0 Z " fill="#B33632" transform="translate(144,142)"/>
<path d="M0 0 C1 3 1 3 0.14453125 4.7890625 C-0.51482422 5.69785156 -0.51482422 5.69785156 -1.1875 6.625 C-1.61417969 7.23601563 -2.04085937 7.84703125 -2.48046875 8.4765625 C-4.26692012 10.26760629 -5.53471865 10.60935585 -8 11 C-7.34 9.35 -6.68 7.7 -6 6 C-5.34 6 -4.68 6 -4 6 C-3.8453125 5.071875 -3.8453125 5.071875 -3.6875 4.125 C-3 2 -3 2 0 0 Z " fill="#C7473F" transform="translate(139,44)"/>
<path d="M0 0 C2 3 2 3 2 5 C2.94875 4.484375 3.8975 3.96875 4.875 3.4375 C5.90625 2.963125 6.9375 2.48875 8 2 C8.66 2.33 9.32 2.66 10 3 C5.69230769 6.93846154 5.69230769 6.93846154 2.1875 7.25 C1.1046875 7.12625 1.1046875 7.12625 0 7 C-1.125 2.25 -1.125 2.25 0 0 Z " fill="#AD332E" transform="translate(100,52)"/>
<path d="M0 0 C2.97 0.33 5.94 0.66 9 1 C9 1.33 9 1.66 9 2 C7.02 2 5.04 2 3 2 C4.65 4.97 6.3 7.94 8 11 C7.34 11 6.68 11 6 11 C4.4921875 9.1015625 4.4921875 9.1015625 2.875 6.625 C2.33617188 5.81289062 1.79734375 5.00078125 1.2421875 4.1640625 C0 2 0 2 0 0 Z " fill="#C2403D" transform="translate(120,104)"/>
<path d="M0 0 C-1.31224548 3.93673644 -2.91910327 6.22719294 -6 9 C-6.33 7.02 -6.66 5.04 -7 3 C-3.375 0 -3.375 0 0 0 Z " fill="#B73A37" transform="translate(151,28)"/>
<path d="M0 0 C2.5723216 0.34761103 4.60671393 0.7771379 6.875 2.0625 C8.77229882 5.33007019 7.65475809 8.36906876 7 12 C6.67 12 6.34 12 6 12 C5.938125 10.906875 5.87625 9.81375 5.8125 8.6875 C5.40122736 4.8525473 5.40122736 4.8525473 2.4375 3.1875 C1.633125 2.795625 0.82875 2.40375 0 2 C0 1.34 0 0.68 0 0 Z " fill="#D05D2C" transform="translate(138,75)"/>
<path d="M0 0 C3.87132028 0.57352893 6.08172796 2.48704352 9 5 C8.34 5.66 7.68 6.32 7 7 C3.535 5.02 3.535 5.02 0 3 C0 2.01 0 1.02 0 0 Z " fill="#BE3F3A" transform="translate(66,53)"/>
<path d="M0 0 C0.66 0.66 1.32 1.32 2 2 C1.01 4.64 0.02 7.28 -1 10 C-1.99 9.67 -2.98 9.34 -4 9 C-2.94124926 5.59687262 -1.99097846 2.98646769 0 0 Z " fill="#CA3532" transform="translate(50,113)"/>
<path d="M0 0 C1.98 0.99 3.96 1.98 6 3 C5.01 3.495 5.01 3.495 4 4 C4.66 5.98 5.32 7.96 6 10 C3.66475218 7.74259377 1.81294927 5.7194239 0 3 C0 2.01 0 1.02 0 0 Z " fill="#C13333" transform="translate(27,27)"/>
<path d="M0 0 C0.33 0.66 0.66 1.32 1 2 C1.66 2.33 2.32 2.66 3 3 C1.35 5.31 -0.3 7.62 -2 10 C-3.39195915 5.82412255 -1.82323219 3.86525224 0 0 Z " fill="#BE403C" transform="translate(53,109)"/>
<path d="M0 0 C2.0625 0.4375 2.0625 0.4375 4 1 C3.67 1.99 3.34 2.98 3 4 C3 3.34 3 2.68 3 2 C2.34 2 1.68 2 1 2 C1 2.66 1 3.32 1 4 C0.01 4.33 -0.98 4.66 -2 5 C-2.99 4.01 -3.98 3.02 -5 2 C-4.360625 1.855625 -3.72125 1.71125 -3.0625 1.5625 C-1.02454854 1.18992819 -1.02454854 1.18992819 0 0 Z " fill="#BF4728" transform="translate(53,100)"/>
<path d="M0 0 C2.475 0.99 2.475 0.99 5 2 C5 2.66 5 3.32 5 4 C4.34 4 3.68 4 3 4 C2.67 5.32 2.34 6.64 2 8 C0.23537317 4.91190305 0 3.76687864 0 0 Z " fill="#C53E2A" transform="translate(49,78)"/>
<path d="M0 0 C4.8 2.46153846 4.8 2.46153846 5.8125 5.1875 C5.874375 5.785625 5.93625 6.38375 6 7 C3.5625 6.3125 3.5625 6.3125 1 5 C0.1875 2.375 0.1875 2.375 0 0 Z " fill="#B33E39" transform="translate(48,40)"/>
<path d="M0 0 C2.97 0 5.94 0 9 0 C9 0.33 9 0.66 9 1 C7.35 1.33 5.7 1.66 4 2 C4.33 2.66 4.66 3.32 5 4 C3.68 4 2.36 4 1 4 C0.67 2.68 0.34 1.36 0 0 Z " fill="#EDBF0E" transform="translate(129,76)"/>
<path d="M0 0 C0.66 0.33 1.32 0.66 2 1 C2.625 4.0625 2.625 4.0625 3 7 C2.01 7.66 1.02 8.32 0 9 C-0.84454356 5.62182575 -1.10844919 3.32534757 0 0 Z " fill="#A73C39" transform="translate(96,33)"/>
<path d="M0 0 C0.66 0.33 1.32 0.66 2 1 C1.67 2.98 1.34 4.96 1 7 C0.34 7 -0.32 7 -1 7 C-1.625 4.625 -1.625 4.625 -2 2 C-1.34 1.34 -0.68 0.68 0 0 Z " fill="#C83733" transform="translate(83,138)"/>
<path d="M0 0 C0.66 0 1.32 0 2 0 C1.34 1.98 0.68 3.96 0 6 C-0.99 5.67 -1.98 5.34 -3 5 C-2.67 3.68 -2.34 2.36 -2 1 C-1.67 1.33 -1.34 1.66 -1 2 C-0.67 1.34 -0.34 0.68 0 0 Z " fill="#A43720" transform="translate(55,82)"/>
<path d="M0 0 C1.32 0.33 2.64 0.66 4 1 C3.67 2.65 3.34 4.3 3 6 C2.01 5.67 1.02 5.34 0 5 C0 3.35 0 1.7 0 0 Z " fill="#C3452D" transform="translate(44,98)"/>
<path d="M0 0 C2.64 0 5.28 0 8 0 C8.33 1.65 8.66 3.3 9 5 C8.34 5 7.68 5 7 5 C6.67 4.01 6.34 3.02 6 2 C3.03 1.505 3.03 1.505 0 1 C0 0.67 0 0.34 0 0 Z " fill="#B8402F" transform="translate(29,96)"/>
<path d="M0 0 C2.33524782 2.25740623 4.18705073 4.2805761 6 7 C5.67 7.99 5.34 8.98 5 10 C4.15801693 8.90241493 3.32669329 7.79664683 2.5 6.6875 C2.0359375 6.07261719 1.571875 5.45773438 1.09375 4.82421875 C0 3 0 3 0 0 Z " fill="#B43631" transform="translate(52,66)"/>
</svg>
